<svg width="861" height="937" viewBox="0 0 861 937" fill="none" xmlns="http://www.w3.org/2000/svg">
<path d="M393 349.518L470.5 406.018L566 335.518L526.5 421.518L464 457.018L420 421.518L393 349.518Z" fill="#212221"/>
<path d="M336.5 387.518C346.5 378.018 387 374.018 392 368.018C397 362.018 397 356.518 397 356.518L414.5 402.518C414.5 402.518 443 447.518 469 444.518C495 441.518 513.5 424.018 513.5 424.018L523 412.518L540.5 387.518L558 353.518C558 353.518 551.5 364.518 558 373.018C564.5 381.518 575 380.018 575 380.018L623.5 515.018H336.5C336.5 515.018 326.5 397.018 336.5 387.518Z" fill="#6A4E4D"/>
<path d="M375 70.0179C395.5 37.0179 413.5 25.018 434 13.518C454.5 2.01795 464.5 0.518002 490 0.0180016C515.5 -0.481998 540.5 9.51794 552.5 19.5179C564.5 29.5179 586.5 53.5179 591.5 67.0179C596.5 80.5179 606 81.0179 608.5 126.018C611 171.018 587.5 215.018 587.5 215.018L581 120.518L491 111.268L397 104.018L386.5 108.518L368.5 139.518L366.5 203.018L355.5 167.018C355.5 167.018 354.5 103.018 375 70.0179Z" fill="#202221"/>
<path d="M587 216.018L586.5 215.998L586.5 216.008V216.018H587ZM587 216.018C586.5 215.998 586.5 215.998 586.5 215.997L586.501 215.995L586.501 215.984L586.503 215.944L586.509 215.782L586.533 215.148C586.555 214.593 586.585 213.776 586.623 212.733C586.7 210.647 586.805 207.653 586.922 204.025C587.156 196.769 587.438 186.974 587.625 176.821C587.813 166.667 587.906 156.158 587.766 147.471C587.695 143.128 587.567 139.244 587.362 136.09C587.157 132.925 586.878 130.53 586.516 129.144C585.792 126.368 583.842 123.057 581.176 119.63C578.517 116.212 575.179 112.717 571.726 109.575C568.273 106.433 564.717 103.655 561.628 101.665C560.083 100.67 558.663 99.8775 557.438 99.3357C556.2 98.7886 555.207 98.518 554.5 98.518C553.8 98.518 553.2 98.518 552.6 98.5261C547.654 98.5931 542.715 99.2167 482.048 105.016C448.013 108.269 427.712 106.52 415.09 104.008C408.778 102.752 404.395 101.307 401.19 100.21C400.962 100.132 400.74 100.056 400.525 99.9816C399.221 99.5338 398.14 99.1625 397.203 98.9021C396.111 98.5985 395.264 98.4607 394.538 98.5165C393.121 98.6255 391.611 99.6777 389.955 101.573C388.314 103.451 386.615 106.059 384.804 109.087C383.826 110.723 382.816 112.48 381.769 114.303C378.959 119.196 375.878 124.559 372.404 129.313C371.268 130.868 370.303 133.161 369.496 136.023C368.691 138.877 368.052 142.263 367.55 145.976C366.546 153.401 366.094 162.098 365.937 170.402C365.781 178.704 365.922 186.602 366.101 192.424C366.191 195.336 366.291 197.728 366.368 199.391C366.406 200.223 366.439 200.873 366.462 201.315C366.474 201.536 366.483 201.704 366.49 201.818L366.497 201.946L366.498 201.974L366.499 201.978L376.993 291.427L376.993 291.428L377.019 291.529L377.121 291.926C377.21 292.274 377.342 292.787 377.512 293.446C377.851 294.764 378.343 296.666 378.953 299.001C380.171 303.672 381.858 310.077 383.733 317.013C387.484 330.891 391.979 346.873 394.972 355.352C397.942 363.768 406.897 377.588 416.768 390.147C421.697 396.417 426.841 402.355 431.559 407.127C436.289 411.912 440.553 415.485 443.724 417.071C446.858 418.638 449.501 418.656 451.862 417.85C454.251 417.033 456.39 415.359 458.476 413.461C459.112 412.882 459.746 412.279 460.38 411.676C461.795 410.329 463.21 408.982 464.646 407.907C466.742 406.337 468.994 405.251 471.552 405.521C474.018 405.78 476.364 406.718 478.635 407.937C480.486 408.93 482.312 410.124 484.12 411.307C484.526 411.572 484.93 411.837 485.334 412.098C489.788 414.984 494.148 417.501 498.95 417.02C500.077 416.908 501.494 416.275 503.141 415.182C504.777 414.095 506.59 412.589 508.502 410.794C512.323 407.206 516.495 402.506 520.365 397.824C524.233 393.146 527.79 388.497 530.38 385.016C531.675 383.276 532.729 381.829 533.458 380.817C533.822 380.312 534.106 379.914 534.298 379.644C534.337 379.589 534.372 379.54 534.403 379.496C534.45 379.431 534.487 379.377 534.517 379.336L534.572 379.257L534.586 379.237L534.59 379.232L534.591 379.231C534.591 379.231 534.591 379.231 535 379.518L534.591 379.231L534.608 379.206L534.628 379.184L534.653 379.207C534.628 379.184 534.628 379.184 534.628 379.184L534.628 379.183L534.631 379.18L534.643 379.167L534.689 379.116C534.729 379.07 534.79 379.002 534.869 378.913C534.975 378.794 535.113 378.637 535.282 378.444C535.368 378.346 535.462 378.239 535.564 378.122C536.167 377.433 537.039 376.427 538.111 375.163C540.256 372.636 543.205 369.079 546.418 364.96C552.852 356.715 560.323 346.251 564.548 337.305C568.249 329.468 576.008 305.915 582.006 283.428C584.253 260.707 585.376 243.853 585.938 232.68C586.219 227.091 586.36 222.923 586.43 220.154C586.465 218.769 586.482 217.734 586.491 217.046C586.496 216.702 586.498 216.444 586.499 216.273C586.499 216.187 586.5 216.123 586.5 216.081L586.5 216.033L586.5 216.022V216.019V216.018C586.5 216.018 586.5 216.018 587 216.018Z" fill="#6E5550" stroke="#212221"/>
<path d="M771.5 737.011H792.467L820.818 732.018L854.779 737.011C854.779 737.011 858.618 837.365 848.577 832.871C838.537 828.378 771.5 832.871 771.5 832.871V737.011Z" fill="#766665"/>
<path d="M713.5 763.018H749L797 758.018C797 758.018 854.9 760.518 855.5 763.518C856.1 766.518 873 854.018 844 859.018C815 864.018 713.5 859.018 713.5 859.018V763.018Z" fill="#715C5B"/>
<path d="M217 431.518C234 420.518 354.5 379.018 354.5 379.018C354.5 379.018 348.5 506.518 461 499.018C573.5 491.518 573.5 379.018 573.5 379.018C573.5 379.018 704.122 425.518 728.5 447.518C752.878 469.518 857.5 726.018 855 737.518C852.5 749.018 835.5 737.518 806.25 749.518C777 761.518 757.5 761.518 757.5 761.518L211.5 737.518L181.5 508.518C181.5 508.518 200 442.518 217 431.518Z" fill="#DDEAF6"/>
<path d="M340 383.518L353.5 378.018C353.5 378.018 359 440.018 375.5 457.018C392 474.018 392.5 495.018 455.5 495.018C518.5 495.018 552 452.518 562.5 429.518C573 406.518 573 377.518 573 377.518L593 385.518C593 385.518 588 414.518 578.5 440.018C569 465.518 537.5 492.518 537.5 492.518C537.5 492.518 492 514.018 470.5 514.018C449 514.018 428 511.518 414 506.518C400 501.518 377 485.518 360 457.018C343 428.518 340 383.518 340 383.518Z" fill="#666262"/>
<path d="M1.51725 522.25C0.73509 518.522 3.58009 515.018 7.38942 515.018H779.528C783.198 515.018 786.008 518.283 785.461 521.912L727.27 907.912C726.827 910.848 724.305 913.018 721.337 913.018H88.3718C85.5329 913.018 83.0826 911.028 82.4997 908.25L1.51725 522.25Z" fill="#112724"/>
<path d="M179 913.018H629L617.5 928.018H194.5L179 913.018Z" fill="#112724"/>
<path d="M194.5 928.018H222L213.438 936.018H200.438L194.5 928.018Z" fill="#0E0E0E"/>
<path d="M617.5 928.018H589.5L598.218 936.018H611.454L617.5 928.018Z" fill="#0E0E0E"/>
<path d="M486.087 241.489C488.69 238.443 501.703 229.305 511.594 225.65C521.484 221.994 561 222.518 561 222.518C561 222.518 570.5 225.518 566 227.018C561.5 228.518 556.881 229.305 556.881 229.305C556.881 229.305 523.046 231.742 517.32 232.351C514.778 232.621 505.641 236.507 498.58 239.661C489.735 243.613 490.381 246.018 490.381 246.018C490.381 246.018 483.484 244.535 486.087 241.489Z" fill="#1C1E1B"/>
<path d="M381.283 233.427C384.609 231.194 399.602 225.896 410.112 225.038C420.621 224.18 456.503 234.567 456.503 234.567C456.503 234.567 461.232 240.52 456.494 240.754C451.757 240.987 452.744 240.749 452.744 240.749C452.744 240.749 419.501 233.988 413.823 233.034C411.302 232.61 401.456 233.892 393.807 235.03C384.224 236.455 384.2 238.945 384.2 238.945C384.2 238.945 377.956 235.661 381.283 233.427Z" fill="#1C1E1B"/>
<path d="M507.015 255.318L516.965 256.017L516.967 256.017L517 255.518C516.967 256.017 516.967 256.017 516.967 256.017L516.967 256.017L516.968 256.017L516.972 256.017L516.989 256.018L517.052 256.023L517.297 256.038C517.509 256.052 517.816 256.072 518.196 256.095C518.954 256.142 520.003 256.205 521.161 256.267C523.472 256.392 526.235 256.518 528 256.518C529.763 256.518 533.149 256.392 536.084 256.268C537.554 256.205 538.914 256.142 539.906 256.096C540.403 256.072 540.807 256.053 541.088 256.039L541.412 256.023L541.496 256.019L541.518 256.018L541.523 256.017L541.524 256.017L541.525 256.017C541.525 256.017 541.525 256.017 541.504 255.602L541.525 256.017L541.532 256.017L552.221 255.326L538.766 264.572L538.744 264.58C538.693 264.599 538.617 264.628 538.518 264.664C538.319 264.737 538.029 264.841 537.666 264.966C536.938 265.216 535.915 265.549 534.739 265.883C532.374 266.553 529.428 267.21 527 267.21C525.852 267.21 524.395 266.792 522.82 266.126C521.255 265.464 519.621 264.578 518.132 263.685C516.644 262.794 515.311 261.901 514.348 261.231C513.867 260.897 513.48 260.618 513.213 260.423C513.079 260.326 512.976 260.249 512.906 260.198L512.828 260.139L512.81 260.126L507.015 255.318Z" fill="#A69D99" stroke="black"/>
<path d="M504.5 253.518L517.381 252.52C517.381 252.52 525.536 254.328 529 254.328C532.464 254.328 541.629 252.52 541.629 252.52L553 251.518L538 245.018C538 245.018 532.448 242.328 527.5 242.328C522.552 242.328 512.928 247.52 512.928 247.52L504.5 253.518Z" fill="#483E3C"/>
<path d="M537.5 257.279C537.5 262.802 533.023 267.279 527.5 267.279C521.977 267.279 517.5 262.802 517.5 257.279C517.5 255.225 517.938 256.304 519 256.279C520.794 256.239 524.031 256.279 527.5 256.279C530.959 257.144 531.754 256.762 533.5 256.279C533 256.279 537.5 254.941 537.5 257.279Z" fill="#2F2C2A"/>
<circle cx="527" cy="261.518" r="2.5" fill="#3B3639"/>
<path d="M507.015 255.318L516.965 256.017L516.967 256.017L517 255.518C516.967 256.017 516.967 256.017 516.967 256.017L516.967 256.017L516.968 256.017L516.972 256.017L516.989 256.018L517.052 256.023L517.297 256.038C517.509 256.052 517.816 256.072 518.196 256.095C518.954 256.142 520.003 256.205 521.161 256.267C523.472 256.392 526.235 256.518 528 256.518C529.763 256.518 533.149 256.392 536.084 256.268C537.554 256.205 538.914 256.142 539.906 256.096C540.403 256.072 540.807 256.053 541.088 256.039L541.412 256.023L541.496 256.019L541.518 256.018L541.523 256.017L541.524 256.017L541.525 256.017C541.525 256.017 541.525 256.017 541.504 255.602L541.525 256.017L541.532 256.017L552.221 255.326L538.766 264.572L538.744 264.58C538.693 264.599 538.617 264.628 538.518 264.664C538.319 264.737 538.029 264.841 537.666 264.966C536.938 265.216 535.915 265.549 534.739 265.883C532.374 266.553 529.428 267.21 527 267.21C525.852 267.21 524.395 266.792 522.82 266.126C521.255 265.464 519.621 264.578 518.132 263.685C516.644 262.794 515.311 261.901 514.348 261.231C513.867 260.897 513.48 260.618 513.213 260.423C513.079 260.326 512.976 260.249 512.906 260.198L512.828 260.139L512.81 260.126L507.015 255.318Z" stroke="black"/>
<path d="M504.5 253.018L516 253.826C516 253.826 523.5 254.326 527 254.326C530.5 254.326 540.5 253.826 540.5 253.826L553 253.018" stroke="black" stroke-width="4" stroke-linecap="round"/>
<path d="M396.015 254.007L405.965 254.706L405.967 254.707L406 254.208C405.967 254.707 405.967 254.707 405.967 254.707L405.967 254.707L405.968 254.707L405.972 254.707L405.989 254.708L406.052 254.712L406.297 254.728C406.509 254.742 406.816 254.761 407.196 254.785C407.954 254.832 409.003 254.894 410.161 254.957C412.472 255.082 415.235 255.208 417 255.208C418.763 255.208 422.149 255.082 425.084 254.957C426.554 254.895 427.914 254.832 428.906 254.785C429.403 254.762 429.807 254.742 430.088 254.729L430.412 254.713L430.496 254.709L430.518 254.707L430.523 254.707L430.524 254.707L430.525 254.707C430.525 254.707 430.525 254.707 430.504 254.292L430.525 254.707L430.532 254.707L441.221 254.016L427.766 263.261L427.744 263.27C427.693 263.289 427.617 263.317 427.518 263.354C427.319 263.426 427.029 263.53 426.666 263.655C425.938 263.906 424.915 264.239 423.739 264.573C421.374 265.243 418.428 265.9 416 265.9C414.852 265.9 413.395 265.482 411.82 264.815C410.255 264.154 408.621 263.267 407.132 262.375C405.644 261.483 404.311 260.591 403.348 259.921C402.867 259.586 402.48 259.308 402.213 259.113C402.079 259.015 401.976 258.939 401.906 258.887L401.828 258.828L401.81 258.815L396.015 254.007Z" stroke="black"/>
<path d="M396.015 254.007L405.965 254.706L405.967 254.707L406 254.208C405.967 254.707 405.967 254.707 405.967 254.707L405.967 254.707L405.968 254.707L405.972 254.707L405.989 254.708L406.052 254.712L406.297 254.728C406.509 254.742 406.816 254.761 407.196 254.785C407.954 254.832 409.003 254.894 410.161 254.957C412.472 255.082 415.235 255.208 417 255.208C418.763 255.208 422.149 255.082 425.084 254.957C426.554 254.895 427.914 254.832 428.906 254.785C429.403 254.762 429.807 254.742 430.088 254.729L430.412 254.713L430.496 254.709L430.518 254.707L430.523 254.707L430.524 254.707L430.525 254.707C430.525 254.707 430.525 254.707 430.504 254.292L430.525 254.707L430.532 254.707L441.221 254.016L427.766 263.261L427.744 263.27C427.693 263.289 427.617 263.317 427.518 263.354C427.319 263.426 427.029 263.53 426.666 263.655C425.938 263.906 424.915 264.239 423.739 264.573C421.374 265.243 418.428 265.9 416 265.9C414.852 265.9 413.395 265.482 411.82 264.815C410.255 264.154 408.621 263.267 407.132 262.375C405.644 261.483 404.311 260.591 403.348 259.921C402.867 259.586 402.48 259.308 402.213 259.113C402.079 259.015 401.976 258.939 401.906 258.887L401.828 258.828L401.81 258.815L396.015 254.007Z" fill="#A69D99" stroke="black"/>
<path d="M393.5 252.208L406.381 251.21C406.381 251.21 414.536 253.018 418 253.018C421.464 253.018 430.629 251.21 430.629 251.21L442 250.208L427 243.708C427 243.708 421.448 241.018 416.5 241.018C411.552 241.018 401.928 246.21 401.928 246.21L393.5 252.208Z" fill="#483E3C"/>
<path d="M429.5 255.969C429.5 261.492 425.023 265.969 419.5 265.969C413.977 265.969 409.5 261.492 409.5 255.969C409.5 253.915 409.938 254.993 411 254.969C412.794 254.928 416.031 254.969 419.5 254.969C422.959 255.834 423.754 255.451 425.5 254.969C425 254.969 429.5 253.63 429.5 255.969Z" fill="#2F2C2A"/>
<circle cx="419" cy="260.208" r="2.5" fill="#3B3639"/>
<path d="M393.5 251.708L405 252.516C405 252.516 412.5 253.016 416 253.016C419.5 253.016 429.5 252.516 429.5 252.516L442 251.708" stroke="black" stroke-width="4" stroke-linecap="round"/>
<path d="M497.079 318.656C500.696 317.451 503.851 319.248 506.141 321.413C507.281 322.492 508.192 323.65 508.819 324.54C509.132 324.984 509.373 325.361 509.536 325.625C509.617 325.758 509.679 325.862 509.72 325.933C509.722 325.936 509.724 325.94 509.726 325.943C509.712 325.981 509.693 326.03 509.67 326.088C509.606 326.25 509.506 326.485 509.368 326.772C509.092 327.347 508.663 328.129 508.049 328.958C506.821 330.615 504.866 332.445 501.939 333.177C500.487 333.54 498.557 333.483 496.458 333.18C494.364 332.877 492.126 332.333 490.069 331.741C488.014 331.15 486.144 330.511 484.788 330.02C484.11 329.775 483.561 329.566 483.182 329.419C483.081 329.38 482.992 329.345 482.916 329.316C482.943 329.284 482.972 329.25 483.004 329.213C483.209 328.977 483.51 328.638 483.894 328.222C484.664 327.39 485.768 326.255 487.105 325.042C489.785 322.611 493.379 319.89 497.079 318.656Z" fill="#72514F" stroke="#212221" stroke-width="0.5"/>
<path d="M456.706 318.663C453.304 317.438 450.332 319.261 448.165 321.476C447.087 322.578 446.225 323.761 445.633 324.671C445.337 325.125 445.109 325.509 444.955 325.78C444.878 325.915 444.819 326.022 444.78 326.095C444.777 326.101 444.774 326.107 444.771 326.113C444.785 326.153 444.803 326.206 444.827 326.271C444.888 326.437 444.982 326.677 445.113 326.971C445.374 327.559 445.78 328.359 446.361 329.206C447.523 330.901 449.37 332.766 452.129 333.512C453.496 333.881 455.315 333.824 457.299 333.514C459.277 333.205 461.391 332.65 463.335 332.046C465.278 331.441 467.044 330.789 468.326 330.288C468.967 330.037 469.485 329.824 469.844 329.674C469.943 329.633 470.029 329.596 470.103 329.565C470.074 329.529 470.042 329.488 470.007 329.445C469.814 329.204 469.529 328.857 469.165 328.432C468.438 327.582 467.394 326.422 466.13 325.184C463.595 322.7 460.2 319.921 456.706 318.663Z" fill="#72514F" stroke="#212221" stroke-width="0.5"/>
<path d="M469.725 246.651L469.734 246.615L475.054 237.909L481.78 244.155L481.785 244.171L481.857 244.409L482.136 245.328C482.378 246.127 482.729 247.289 483.167 248.739C484.042 251.637 485.261 255.684 486.635 260.277C489.385 269.464 492.76 280.838 495.26 289.587C497.497 297.417 499.739 301.168 501.97 304.9C502.242 305.354 502.513 305.808 502.784 306.27C505.225 310.42 507.67 315.169 510.117 325.956C509.89 325.81 509.592 325.627 509.232 325.425C508.33 324.919 507.033 324.286 505.451 323.78C502.287 322.767 497.971 322.257 493.398 324.289C490.521 325.569 488.327 327.201 486.342 328.824C485.636 329.401 484.967 329.974 484.318 330.53C482.983 331.673 481.734 332.743 480.43 333.621C478.507 334.916 476.499 335.768 474 335.768C471.431 335.768 469.526 334.745 467.864 333.271C466.717 332.255 465.703 331.043 464.666 329.804C464.183 329.227 463.695 328.644 463.187 328.073C461.865 326.586 460.42 325.199 458.612 324.294C457.274 323.626 455.895 323.577 454.518 323.833C453.147 324.087 451.761 324.646 450.405 325.203L450.242 325.27C448.447 326.009 446.711 326.723 445.044 326.803C443.358 326.884 441.729 326.314 440.197 324.363C439.882 323.963 439.752 323.442 439.806 322.771C439.86 322.096 440.098 321.285 440.498 320.333C441.3 318.427 442.723 316.02 444.491 313.096C444.678 312.786 444.869 312.471 445.064 312.149C448.533 306.421 453.089 298.899 456.733 289.609C460.138 280.928 463.39 270.169 465.791 261.584C466.991 257.29 467.979 253.539 468.667 250.861C469.011 249.522 469.28 248.451 469.463 247.715C469.554 247.347 469.624 247.062 469.672 246.87L469.725 246.651Z" fill="#6E5550" stroke="#212221" stroke-width="0.5"/>
<path d="M377.835 251.966C376.275 240.697 385.428 230.826 396.782 231.532L444.394 234.492C455.77 235.199 463.633 246.168 460.65 257.168L455.074 277.729C452.947 285.573 445.828 291.018 437.701 291.018H398.922C389.934 291.018 382.324 284.389 381.092 275.487L377.835 251.966Z" fill="#485467" fill-opacity="0.42" stroke="black" stroke-width="4"/>
<path d="M573.665 254.966C575.225 243.697 566.072 233.826 554.718 234.532L507.106 237.492C495.73 238.199 487.867 249.168 490.85 260.168L496.426 280.729C498.553 288.573 505.672 294.018 513.799 294.018H552.578C561.566 294.018 569.176 287.389 570.408 278.487L573.665 254.966Z" fill="#485467" fill-opacity="0.42" stroke="black" stroke-width="4"/>
<path d="M462.5 244.018C462.5 244.018 470.484 238.862 477 239.022C483.516 239.181 489.5 242.769 489.5 242.769" stroke="black" stroke-width="9" stroke-linecap="square"/>
<path d="M557 233.351H571H583.5L582 242.351L576 246.351L575 249.351L573.5 245.851L557 233.351Z" fill="black"/>
<path d="M394 230.018H380H367.5L369 239.018L375 243.018L376 246.018L377.5 242.518L394 230.018Z" fill="black"/>
<path d="M595.228 212.734C595.854 211.503 595.364 209.998 594.134 209.372C592.903 208.746 591.398 209.236 590.772 210.466L595.228 212.734ZM580.728 241.234L595.228 212.734L590.772 210.466L576.272 238.966L580.728 241.234Z" fill="black"/>
<path d="M367.944 206.992C367.653 205.642 366.324 204.783 364.974 205.074C363.624 205.365 362.765 206.694 363.056 208.044L367.944 206.992ZM374.444 237.185L367.944 206.992L363.056 208.044L369.556 238.238L374.444 237.185Z" fill="black"/>
<path d="M427 363.518C427 363.518 454.5 371.539 473 370.018C491.5 368.497 512.5 363.518 512.5 363.518L502.5 373.518C502.5 373.518 488.5 389.268 471.5 388.518C454.5 387.768 440.5 377.018 440.5 377.018L427 363.518Z" fill="#7C555E"/>
<path d="M433.5 360.518C433.5 360.518 448.5 353.518 452.5 354.018C456.5 354.518 466.5 362.018 469.5 361.518C471.026 361.263 479 358.018 487 354.518C490.221 353.109 499.5 358.518 499.5 358.518L506.5 361.518L513.5 363.018C513.5 363.018 487 372.518 470.5 372.018C454 371.518 426.5 364.018 426.5 364.018L433.5 360.518Z" fill="#413332"/>
<path d="M426.5 363.525C426.5 363.525 454 387.357 472.5 385.836C491 384.315 512.5 363.018 512.5 363.018L497.5 382.287C497.5 382.287 487 397.741 470 396.992C453 396.242 441.5 384.315 441.5 384.315L426.5 363.525Z" fill="#50393C"/>
<path d="M427 363.518C427 363.518 448 378.897 452 380.397C456 381.897 465 385.397 471.5 385.397C478 385.397 483 382.897 489 380.397C495 377.897 513.5 363.018 513.5 363.018" stroke="black" stroke-linecap="round"/>
<path d="M426.5 363.518C426.5 363.518 438.427 384.766 451.5 391.397C458.892 395.147 465 396.897 472 396.897C479 396.897 486.5 392.397 489 390.397C491.5 388.397 499 381.397 499 381.397L513.5 363.018" stroke="black" stroke-linecap="round"/>
<path d="M427 363.518C427 363.518 440.321 367.508 453.357 370.098C460.5 371.518 463.54 372.018 470.5 372.018C477.46 372.018 488.157 370.516 490.643 369.681C493.129 368.845 493 369.018 501 366.518C509 364.018 513.5 363.018 513.5 363.018" stroke="black" stroke-linecap="round"/>
<path d="M426.5 363.397C426.5 363.397 437.576 357.801 450.5 354.3C457.808 352.321 462.08 361.397 469 361.397C475.92 361.397 483.5 354.204 487 354.3C490.5 354.397 491.21 355.158 500.072 358.976C508.935 362.794 513.5 363.018 513.5 363.018" stroke="black" stroke-linecap="round"/>
<path d="M423.565 347.685C433.065 340.351 468.065 336.018 468.065 336.018C468.065 336.018 508.565 337.351 521.065 346.018C533.565 354.685 528 363.018 521.065 360.518C514.13 358.018 518.065 360.518 498.565 353.018C479.065 345.518 485.565 350.518 470.065 350.518C454.565 350.518 459.565 346.018 444.565 350.518C429.565 355.018 423.565 360.018 418.565 360.518C413.565 361.018 414.065 355.018 423.565 347.685Z" fill="#212221"/>
</svg>
